<?xml version="1.0" encoding="utf-8"?>
<!-- Generator: Adobe Illustrator 24.3.0, SVG Export Plug-In . SVG Version: 6.00 Build 0)  -->
<svg version="1.1" id="圖層_1" xmlns="http://www.w3.org/2000/svg" xmlns:xlink="http://www.w3.org/1999/xlink" x="0px" y="0px"
	 viewBox="0 0 186.18 72" style="enable-background:new 0 0 186.18 72;" xml:space="preserve">
<style type="text/css">
	.st0{fill:#006AA6;}
	.st1{fill:#FFFFFF;}
</style>
<rect y="-1" class="st0" width="188" height="75"/>
<path class="st1" d="M91.48,38.66v6.56c0,0-2.54-2.22-7.97-2.22H78.8c0,0-5.43,0.36-5.43,2.9s0,13.65,0,13.65s-0.72,3.37,4.35,3.37
	h8.21c0,0,5.56-0.69,5.56-1.8v6.56c0,0-1.8,2.22-7.96,2.35h-6.01c0,0-10.66,0.49-10.66-8.2v-16.7c0,0,0.45-8.89,9.64-8.89
	C76.49,36.24,91.48,36.13,91.48,38.66z"/>
<path class="st1" d="M100.53,38.66v6.43c0,0,3.62-2.08,6.16-2.08c2.54,0,7.97,0,7.97,0s3.98,0,3.98,2.9v3.99
	c0,0-7.97-0.37-12.31,1.44c-4.35,1.81-6.88,3.26-7.61,5.79c-0.72,2.53-0.36,7.97,1.09,9.41s3.31,3.38,8.35,3.5
	c5.05,0.12,17.15-0.01,17.15-0.01V44.85c0,0-1.24-8.37-9.21-8.37S104.51,36.49,100.53,38.66z"/>
<path class="st1" d="M132.76,41.56v28.48h6.79l0.09-25.22c0,0,1.81-2.53,10.86-2.53v-5.79C150.51,36.49,132.76,36.85,132.76,41.56z"
	/>
<path class="st1" d="M177.31,37.21c0,0,0.72-15.21-1.81-18.83h8.69v51.66l-16.4,0.06c0,0-10.23,0.83-10.23-10.23s0-14.92,0-14.92
	s0.66-9.06,8.76-8.76S177.31,37.21,177.31,37.21z"/>
<path class="st0" d="M118.64,55.32v8.12h-9.49c0,0-3.91-0.15-3.91-3.78c0-3.62,5.07-4.35,6.16-4.35S118.64,55.32,118.64,55.32z"/>
<path class="st0" d="M177.31,43.01v20.12h-7.55c0,0-6.21,0.88-6.21-9.62s2.54-11.59,4.35-11.59
	C169.7,41.92,177.31,43.01,177.31,43.01z"/>
<path class="st1" d="M29.58,70.04c18.86,0.12,22.78-10.74,25.68-16.17s2.17-19.19,2.17-19.19c0.36-10.14,0.36-16.66-5.79-23.18
	c0,0-6.52-9.05-22.09-8.99c0,0-14.09,0-20.97,9.41S1.33,24.6,1.69,34.74c0,0-0.72,13.76,2.17,19.19
	C3.87,53.93,8.97,69.91,29.58,70.04z"/>
<path class="st0" d="M8.18,35.04c0,0,21.73,0.72,35.49-19.19c0,0,6.88,2.53,6.88,10.5s0,18.91,0,18.91s-5.43,1.73-8.69-2.25
	l-4.71,4.35c0,0,3.48,5.06,10.8,5.79c0,0-3.55,9.42-14.05,9.78S7.82,60.02,8.18,35.04z"/>
<circle class="st1" cx="39.33" cy="33.95" r="5.43"/>
</svg>
